<mxfile host="app.diagrams.net" agent="Mozilla/5.0 (Windows NT 10.0; Win64; x64) AppleWebKit/537.36 (KHTML, like Gecko) Chrome/141.0.0.0 Safari/537.36" version="28.2.7">
  <diagram name="PÃ¡gina-1" id="HO0uUgY1ogRn9ltqDNVI">
    <mxGraphModel dx="3318" dy="2538" grid="1" gridSize="10" guides="1" tooltips="1" connect="1" arrows="1" fold="1" page="1" pageScale="1" pageWidth="827" pageHeight="1169" math="0" shadow="0">
      <root>
        <mxCell id="0" />
        <mxCell id="1" parent="0" />
        <mxCell id="iiPp_Zo-3xQFupyXhjwp-2" value="patient" style="rounded=0;whiteSpace=wrap;html=1;" vertex="1" parent="1">
          <mxGeometry x="-380" y="-750" width="120" height="60" as="geometry" />
        </mxCell>
        <mxCell id="iiPp_Zo-3xQFupyXhjwp-3" value="physician" style="rounded=0;whiteSpace=wrap;html=1;" vertex="1" parent="1">
          <mxGeometry x="-380" y="-870" width="120" height="60" as="geometry" />
        </mxCell>
        <mxCell id="iiPp_Zo-3xQFupyXhjwp-4" value="appointment" style="rounded=0;whiteSpace=wrap;html=1;" vertex="1" parent="1">
          <mxGeometry x="30" y="-810" width="120" height="60" as="geometry" />
        </mxCell>
        <mxCell id="iiPp_Zo-3xQFupyXhjwp-5" value="clinical_record" style="rounded=0;whiteSpace=wrap;html=1;" vertex="1" parent="1">
          <mxGeometry x="30" y="-550" width="120" height="60" as="geometry" />
        </mxCell>
        <mxCell id="iiPp_Zo-3xQFupyXhjwp-6" value="insurance_policy" style="rounded=0;whiteSpace=wrap;html=1;" vertex="1" parent="1">
          <mxGeometry x="-380" y="-490" width="120" height="60" as="geometry" />
        </mxCell>
        <mxCell id="iiPp_Zo-3xQFupyXhjwp-7" value="user" style="rounded=0;whiteSpace=wrap;html=1;" vertex="1" parent="1">
          <mxGeometry x="400" y="-680" width="120" height="60" as="geometry" />
        </mxCell>
        <mxCell id="iiPp_Zo-3xQFupyXhjwp-8" value="has" style="rhombus;whiteSpace=wrap;html=1;" vertex="1" parent="1">
          <mxGeometry x="-150" y="-760" width="80" height="80" as="geometry" />
        </mxCell>
        <mxCell id="iiPp_Zo-3xQFupyXhjwp-9" value="attends" style="rhombus;whiteSpace=wrap;html=1;" vertex="1" parent="1">
          <mxGeometry x="-150" y="-880" width="80" height="80" as="geometry" />
        </mxCell>
        <mxCell id="iiPp_Zo-3xQFupyXhjwp-10" value="generates" style="rhombus;whiteSpace=wrap;html=1;" vertex="1" parent="1">
          <mxGeometry x="50" y="-690" width="80" height="80" as="geometry" />
        </mxCell>
        <mxCell id="iiPp_Zo-3xQFupyXhjwp-11" value="holds" style="rhombus;whiteSpace=wrap;html=1;" vertex="1" parent="1">
          <mxGeometry x="-360" y="-640" width="80" height="80" as="geometry" />
        </mxCell>
        <mxCell id="iiPp_Zo-3xQFupyXhjwp-12" value="audit_log" style="rounded=0;whiteSpace=wrap;html=1;" vertex="1" parent="1">
          <mxGeometry x="400" y="-420" width="120" height="60" as="geometry" />
        </mxCell>
        <mxCell id="iiPp_Zo-3xQFupyXhjwp-13" value="creates" style="rhombus;whiteSpace=wrap;html=1;" vertex="1" parent="1">
          <mxGeometry x="240" y="-780" width="80" height="80" as="geometry" />
        </mxCell>
        <mxCell id="iiPp_Zo-3xQFupyXhjwp-14" value="registers" style="rhombus;whiteSpace=wrap;html=1;" vertex="1" parent="1">
          <mxGeometry x="240" y="-630" width="80" height="80" as="geometry" />
        </mxCell>
        <mxCell id="iiPp_Zo-3xQFupyXhjwp-15" value="logs" style="rhombus;whiteSpace=wrap;html=1;" vertex="1" parent="1">
          <mxGeometry x="420" y="-560" width="80" height="80" as="geometry" />
        </mxCell>
        <mxCell id="iiPp_Zo-3xQFupyXhjwp-16" value="" style="endArrow=none;html=1;rounded=0;exitX=1;exitY=0.5;exitDx=0;exitDy=0;entryX=0;entryY=0.5;entryDx=0;entryDy=0;" edge="1" parent="1" source="iiPp_Zo-3xQFupyXhjwp-2" target="iiPp_Zo-3xQFupyXhjwp-8">
          <mxGeometry width="50" height="50" relative="1" as="geometry">
            <mxPoint x="-100" y="-640" as="sourcePoint" />
            <mxPoint x="-50" y="-690" as="targetPoint" />
          </mxGeometry>
        </mxCell>
        <mxCell id="iiPp_Zo-3xQFupyXhjwp-17" value="" style="endArrow=none;html=1;rounded=0;exitX=1;exitY=0.5;exitDx=0;exitDy=0;entryX=0;entryY=0.5;entryDx=0;entryDy=0;" edge="1" parent="1" source="iiPp_Zo-3xQFupyXhjwp-8" target="iiPp_Zo-3xQFupyXhjwp-4">
          <mxGeometry width="50" height="50" relative="1" as="geometry">
            <mxPoint x="-80" y="-820" as="sourcePoint" />
            <mxPoint x="-30" y="-870" as="targetPoint" />
          </mxGeometry>
        </mxCell>
        <mxCell id="iiPp_Zo-3xQFupyXhjwp-18" value="1 : N" style="text;html=1;whiteSpace=wrap;strokeColor=none;fillColor=none;align=center;verticalAlign=middle;rounded=0;" vertex="1" parent="1">
          <mxGeometry x="-156" y="-900" width="60" height="30" as="geometry" />
        </mxCell>
        <mxCell id="iiPp_Zo-3xQFupyXhjwp-19" value="" style="endArrow=none;html=1;rounded=0;exitX=1;exitY=0.5;exitDx=0;exitDy=0;entryX=0;entryY=0.5;entryDx=0;entryDy=0;" edge="1" parent="1" source="iiPp_Zo-3xQFupyXhjwp-3" target="iiPp_Zo-3xQFupyXhjwp-9">
          <mxGeometry width="50" height="50" relative="1" as="geometry">
            <mxPoint x="-260" y="-700" as="sourcePoint" />
            <mxPoint x="-210" y="-750" as="targetPoint" />
          </mxGeometry>
        </mxCell>
        <mxCell id="iiPp_Zo-3xQFupyXhjwp-20" value="" style="endArrow=none;html=1;rounded=0;entryX=0;entryY=0.5;entryDx=0;entryDy=0;exitX=1;exitY=0.5;exitDx=0;exitDy=0;" edge="1" parent="1" source="iiPp_Zo-3xQFupyXhjwp-9" target="iiPp_Zo-3xQFupyXhjwp-4">
          <mxGeometry width="50" height="50" relative="1" as="geometry">
            <mxPoint x="-70" y="-690" as="sourcePoint" />
            <mxPoint x="-40" y="-760" as="targetPoint" />
          </mxGeometry>
        </mxCell>
        <mxCell id="iiPp_Zo-3xQFupyXhjwp-21" value="" style="endArrow=none;html=1;rounded=0;entryX=0.5;entryY=1;entryDx=0;entryDy=0;exitX=0.5;exitY=0;exitDx=0;exitDy=0;" edge="1" parent="1" source="iiPp_Zo-3xQFupyXhjwp-10" target="iiPp_Zo-3xQFupyXhjwp-4">
          <mxGeometry width="50" height="50" relative="1" as="geometry">
            <mxPoint x="50" y="-700" as="sourcePoint" />
            <mxPoint x="100" y="-750" as="targetPoint" />
          </mxGeometry>
        </mxCell>
        <mxCell id="iiPp_Zo-3xQFupyXhjwp-22" value="1 : N" style="text;html=1;whiteSpace=wrap;strokeColor=none;fillColor=none;align=center;verticalAlign=middle;rounded=0;" vertex="1" parent="1">
          <mxGeometry x="-156" y="-780" width="60" height="30" as="geometry" />
        </mxCell>
        <mxCell id="iiPp_Zo-3xQFupyXhjwp-23" value="1 : N" style="text;html=1;whiteSpace=wrap;strokeColor=none;fillColor=none;align=center;verticalAlign=middle;rounded=0;" vertex="1" parent="1">
          <mxGeometry x="90" y="-700" width="60" height="30" as="geometry" />
        </mxCell>
        <mxCell id="iiPp_Zo-3xQFupyXhjwp-24" value="" style="endArrow=none;html=1;rounded=0;exitX=0.5;exitY=0;exitDx=0;exitDy=0;entryX=0.5;entryY=1;entryDx=0;entryDy=0;" edge="1" parent="1" source="iiPp_Zo-3xQFupyXhjwp-5" target="iiPp_Zo-3xQFupyXhjwp-10">
          <mxGeometry width="50" height="50" relative="1" as="geometry">
            <mxPoint x="40" y="-560" as="sourcePoint" />
            <mxPoint x="90" y="-610" as="targetPoint" />
          </mxGeometry>
        </mxCell>
        <mxCell id="iiPp_Zo-3xQFupyXhjwp-25" value="" style="endArrow=none;html=1;rounded=0;exitX=0.5;exitY=0;exitDx=0;exitDy=0;entryX=0.5;entryY=1;entryDx=0;entryDy=0;" edge="1" parent="1" source="iiPp_Zo-3xQFupyXhjwp-11" target="iiPp_Zo-3xQFupyXhjwp-2">
          <mxGeometry width="50" height="50" relative="1" as="geometry">
            <mxPoint x="-370" y="-640" as="sourcePoint" />
            <mxPoint x="-320" y="-690" as="targetPoint" />
          </mxGeometry>
        </mxCell>
        <mxCell id="iiPp_Zo-3xQFupyXhjwp-26" value="1 : N" style="text;html=1;whiteSpace=wrap;strokeColor=none;fillColor=none;align=center;verticalAlign=middle;rounded=0;" vertex="1" parent="1">
          <mxGeometry x="-320" y="-650" width="60" height="30" as="geometry" />
        </mxCell>
        <mxCell id="iiPp_Zo-3xQFupyXhjwp-27" value="" style="endArrow=none;html=1;rounded=0;exitX=0.5;exitY=0;exitDx=0;exitDy=0;entryX=0.5;entryY=1;entryDx=0;entryDy=0;" edge="1" parent="1" source="iiPp_Zo-3xQFupyXhjwp-6" target="iiPp_Zo-3xQFupyXhjwp-11">
          <mxGeometry width="50" height="50" relative="1" as="geometry">
            <mxPoint x="-370" y="-510" as="sourcePoint" />
            <mxPoint x="-320" y="-560" as="targetPoint" />
          </mxGeometry>
        </mxCell>
        <mxCell id="iiPp_Zo-3xQFupyXhjwp-28" value="" style="endArrow=none;html=1;rounded=0;entryX=0;entryY=0.5;entryDx=0;entryDy=0;exitX=1;exitY=0.5;exitDx=0;exitDy=0;" edge="1" parent="1" source="iiPp_Zo-3xQFupyXhjwp-4" target="iiPp_Zo-3xQFupyXhjwp-13">
          <mxGeometry width="50" height="50" relative="1" as="geometry">
            <mxPoint x="150" y="-780" as="sourcePoint" />
            <mxPoint x="200" y="-830" as="targetPoint" />
          </mxGeometry>
        </mxCell>
        <mxCell id="iiPp_Zo-3xQFupyXhjwp-29" value="" style="endArrow=none;html=1;rounded=0;exitX=1;exitY=0.5;exitDx=0;exitDy=0;entryX=0;entryY=0.5;entryDx=0;entryDy=0;" edge="1" parent="1" source="iiPp_Zo-3xQFupyXhjwp-13" target="iiPp_Zo-3xQFupyXhjwp-7">
          <mxGeometry width="50" height="50" relative="1" as="geometry">
            <mxPoint x="390" y="-750" as="sourcePoint" />
            <mxPoint x="440" y="-800" as="targetPoint" />
          </mxGeometry>
        </mxCell>
        <mxCell id="iiPp_Zo-3xQFupyXhjwp-30" value="1 : N" style="text;html=1;whiteSpace=wrap;strokeColor=none;fillColor=none;align=center;verticalAlign=middle;rounded=0;" vertex="1" parent="1">
          <mxGeometry x="250" y="-800" width="60" height="30" as="geometry" />
        </mxCell>
        <mxCell id="iiPp_Zo-3xQFupyXhjwp-31" value="" style="endArrow=none;html=1;rounded=0;entryX=0;entryY=0.5;entryDx=0;entryDy=0;exitX=1;exitY=0.5;exitDx=0;exitDy=0;" edge="1" parent="1" source="iiPp_Zo-3xQFupyXhjwp-14" target="iiPp_Zo-3xQFupyXhjwp-7">
          <mxGeometry width="50" height="50" relative="1" as="geometry">
            <mxPoint x="320" y="-590" as="sourcePoint" />
            <mxPoint x="370" y="-640" as="targetPoint" />
          </mxGeometry>
        </mxCell>
        <mxCell id="iiPp_Zo-3xQFupyXhjwp-32" value="" style="endArrow=none;html=1;rounded=0;exitX=1;exitY=0.5;exitDx=0;exitDy=0;entryX=0;entryY=0.5;entryDx=0;entryDy=0;" edge="1" parent="1" source="iiPp_Zo-3xQFupyXhjwp-5" target="iiPp_Zo-3xQFupyXhjwp-14">
          <mxGeometry width="50" height="50" relative="1" as="geometry">
            <mxPoint x="190" y="-460" as="sourcePoint" />
            <mxPoint x="230" y="-590" as="targetPoint" />
          </mxGeometry>
        </mxCell>
        <mxCell id="iiPp_Zo-3xQFupyXhjwp-33" value="1 : N" style="text;html=1;whiteSpace=wrap;strokeColor=none;fillColor=none;align=center;verticalAlign=middle;rounded=0;" vertex="1" parent="1">
          <mxGeometry x="250" y="-650" width="60" height="30" as="geometry" />
        </mxCell>
        <mxCell id="iiPp_Zo-3xQFupyXhjwp-34" value="1 : N" style="text;html=1;whiteSpace=wrap;strokeColor=none;fillColor=none;align=center;verticalAlign=middle;rounded=0;" vertex="1" parent="1">
          <mxGeometry x="470" y="-570" width="60" height="30" as="geometry" />
        </mxCell>
        <mxCell id="iiPp_Zo-3xQFupyXhjwp-35" value="" style="endArrow=none;html=1;rounded=0;entryX=0.5;entryY=1;entryDx=0;entryDy=0;exitX=0.5;exitY=0;exitDx=0;exitDy=0;" edge="1" parent="1" source="iiPp_Zo-3xQFupyXhjwp-15" target="iiPp_Zo-3xQFupyXhjwp-7">
          <mxGeometry width="50" height="50" relative="1" as="geometry">
            <mxPoint x="420" y="-560" as="sourcePoint" />
            <mxPoint x="470" y="-610" as="targetPoint" />
          </mxGeometry>
        </mxCell>
        <mxCell id="iiPp_Zo-3xQFupyXhjwp-36" value="" style="endArrow=none;html=1;rounded=0;entryX=0.5;entryY=1;entryDx=0;entryDy=0;exitX=0.5;exitY=0;exitDx=0;exitDy=0;" edge="1" parent="1" source="iiPp_Zo-3xQFupyXhjwp-12" target="iiPp_Zo-3xQFupyXhjwp-15">
          <mxGeometry width="50" height="50" relative="1" as="geometry">
            <mxPoint x="430" y="-440" as="sourcePoint" />
            <mxPoint x="480" y="-490" as="targetPoint" />
          </mxGeometry>
        </mxCell>
        <mxCell id="iiPp_Zo-3xQFupyXhjwp-37" value="&lt;u&gt;patient_id&lt;/u&gt;" style="ellipse;whiteSpace=wrap;html=1;" vertex="1" parent="1">
          <mxGeometry x="-580" y="-860" width="100" height="60" as="geometry" />
        </mxCell>
        <mxCell id="iiPp_Zo-3xQFupyXhjwp-38" value="name" style="ellipse;whiteSpace=wrap;html=1;" vertex="1" parent="1">
          <mxGeometry x="-620" y="-790" width="100" height="60" as="geometry" />
        </mxCell>
        <mxCell id="iiPp_Zo-3xQFupyXhjwp-39" value="sex" style="ellipse;whiteSpace=wrap;html=1;" vertex="1" parent="1">
          <mxGeometry x="-630" y="-715" width="100" height="60" as="geometry" />
        </mxCell>
        <mxCell id="iiPp_Zo-3xQFupyXhjwp-40" value="birth_date" style="ellipse;whiteSpace=wrap;html=1;dashed=1;dashPattern=8 8;" vertex="1" parent="1">
          <mxGeometry x="-600" y="-640" width="100" height="60" as="geometry" />
        </mxCell>
        <mxCell id="iiPp_Zo-3xQFupyXhjwp-41" value="" style="endArrow=none;html=1;rounded=0;entryX=1;entryY=0.5;entryDx=0;entryDy=0;exitX=0;exitY=0.5;exitDx=0;exitDy=0;" edge="1" parent="1" source="iiPp_Zo-3xQFupyXhjwp-2" target="iiPp_Zo-3xQFupyXhjwp-37">
          <mxGeometry width="50" height="50" relative="1" as="geometry">
            <mxPoint x="-520" y="-700" as="sourcePoint" />
            <mxPoint x="-470" y="-750" as="targetPoint" />
          </mxGeometry>
        </mxCell>
        <mxCell id="iiPp_Zo-3xQFupyXhjwp-42" value="" style="endArrow=none;html=1;rounded=0;exitX=1;exitY=0.5;exitDx=0;exitDy=0;entryX=0;entryY=0.5;entryDx=0;entryDy=0;" edge="1" parent="1" source="iiPp_Zo-3xQFupyXhjwp-38" target="iiPp_Zo-3xQFupyXhjwp-2">
          <mxGeometry width="50" height="50" relative="1" as="geometry">
            <mxPoint x="-490" y="-690" as="sourcePoint" />
            <mxPoint x="-440" y="-740" as="targetPoint" />
          </mxGeometry>
        </mxCell>
        <mxCell id="iiPp_Zo-3xQFupyXhjwp-43" value="" style="endArrow=none;html=1;rounded=0;entryX=0;entryY=0.5;entryDx=0;entryDy=0;exitX=1;exitY=0.5;exitDx=0;exitDy=0;" edge="1" parent="1" source="iiPp_Zo-3xQFupyXhjwp-39" target="iiPp_Zo-3xQFupyXhjwp-2">
          <mxGeometry width="50" height="50" relative="1" as="geometry">
            <mxPoint x="-530" y="-670" as="sourcePoint" />
            <mxPoint x="-480" y="-720" as="targetPoint" />
          </mxGeometry>
        </mxCell>
        <mxCell id="iiPp_Zo-3xQFupyXhjwp-44" value="" style="endArrow=none;html=1;rounded=0;entryX=0;entryY=0.5;entryDx=0;entryDy=0;exitX=0.95;exitY=0.3;exitDx=0;exitDy=0;exitPerimeter=0;" edge="1" parent="1" source="iiPp_Zo-3xQFupyXhjwp-40" target="iiPp_Zo-3xQFupyXhjwp-2">
          <mxGeometry width="50" height="50" relative="1" as="geometry">
            <mxPoint x="-490" y="-610" as="sourcePoint" />
            <mxPoint x="-380" y="-720" as="targetPoint" />
          </mxGeometry>
        </mxCell>
        <mxCell id="iiPp_Zo-3xQFupyXhjwp-45" value="&lt;u&gt;physician_id&lt;/u&gt;" style="ellipse;whiteSpace=wrap;html=1;" vertex="1" parent="1">
          <mxGeometry x="-520" y="-990" width="100" height="60" as="geometry" />
        </mxCell>
        <mxCell id="iiPp_Zo-3xQFupyXhjwp-46" value="name&lt;span style=&quot;color: rgba(0, 0, 0, 0); font-family: monospace; font-size: 0px; text-align: start; text-wrap-mode: nowrap;&quot;&gt;%3CmxGraphModel%3E%3Croot%3E%3CmxCell%20id%3D%220%22%2F%3E%3CmxCell%20id%3D%221%22%20parent%3D%220%22%2F%3E%3CmxCell%20id%3D%222%22%20value%3D%22%22%20style%3D%22ellipse%3BwhiteSpace%3Dwrap%3Bhtml%3D1%3B%22%20vertex%3D%221%22%20parent%3D%221%22%3E%3CmxGeometry%20x%3D%22190%22%20y%3D%22-120%22%20width%3D%22100%22%20height%3D%2260%22%20as%3D%22geometry%22%2F%3E%3C%2FmxCell%3E%3C%2Froot%3E%3C%2FmxGraphModel%3E&lt;/span&gt;" style="ellipse;whiteSpace=wrap;html=1;" vertex="1" parent="1">
          <mxGeometry x="-380" y="-1030" width="100" height="60" as="geometry" />
        </mxCell>
        <mxCell id="iiPp_Zo-3xQFupyXhjwp-47" value="license_number" style="ellipse;whiteSpace=wrap;html=1;" vertex="1" parent="1">
          <mxGeometry x="-250" y="-1000" width="100" height="60" as="geometry" />
        </mxCell>
        <mxCell id="iiPp_Zo-3xQFupyXhjwp-48" value="" style="endArrow=none;html=1;rounded=0;exitX=0.5;exitY=0;exitDx=0;exitDy=0;" edge="1" parent="1" source="iiPp_Zo-3xQFupyXhjwp-3" target="iiPp_Zo-3xQFupyXhjwp-45">
          <mxGeometry width="50" height="50" relative="1" as="geometry">
            <mxPoint x="-410" y="-910" as="sourcePoint" />
            <mxPoint x="-360" y="-960" as="targetPoint" />
          </mxGeometry>
        </mxCell>
        <mxCell id="iiPp_Zo-3xQFupyXhjwp-49" value="" style="endArrow=none;html=1;rounded=0;entryX=0.27;entryY=1.017;entryDx=0;entryDy=0;entryPerimeter=0;exitX=0.5;exitY=0;exitDx=0;exitDy=0;" edge="1" parent="1" source="iiPp_Zo-3xQFupyXhjwp-3" target="iiPp_Zo-3xQFupyXhjwp-47">
          <mxGeometry width="50" height="50" relative="1" as="geometry">
            <mxPoint x="-310" y="-870" as="sourcePoint" />
            <mxPoint x="-260" y="-920" as="targetPoint" />
          </mxGeometry>
        </mxCell>
        <mxCell id="iiPp_Zo-3xQFupyXhjwp-50" value="" style="endArrow=none;html=1;rounded=0;entryX=0.5;entryY=1;entryDx=0;entryDy=0;exitX=0.5;exitY=0;exitDx=0;exitDy=0;" edge="1" parent="1" source="iiPp_Zo-3xQFupyXhjwp-3" target="iiPp_Zo-3xQFupyXhjwp-46">
          <mxGeometry width="50" height="50" relative="1" as="geometry">
            <mxPoint x="-310" y="-890" as="sourcePoint" />
            <mxPoint x="-260" y="-940" as="targetPoint" />
          </mxGeometry>
        </mxCell>
        <mxCell id="iiPp_Zo-3xQFupyXhjwp-51" value="&lt;u&gt;appointment_id&lt;/u&gt;" style="ellipse;whiteSpace=wrap;html=1;" vertex="1" parent="1">
          <mxGeometry x="-96" y="-960" width="100" height="60" as="geometry" />
        </mxCell>
        <mxCell id="iiPp_Zo-3xQFupyXhjwp-52" value="appointment_date&lt;span style=&quot;color: rgba(0, 0, 0, 0); font-family: monospace; font-size: 0px; text-align: start; text-wrap-mode: nowrap;&quot;&gt;%3CmxGraphModel%3E%3Croot%3E%3CmxCell%20id%3D%220%22%2F%3E%3CmxCell%20id%3D%221%22%20parent%3D%220%22%2F%3E%3CmxCell%20id%3D%222%22%20value%3D%22%22%20style%3D%22ellipse%3BwhiteSpace%3Dwrap%3Bhtml%3D1%3B%22%20vertex%3D%221%22%20parent%3D%221%22%3E%3CmxGeometry%20x%3D%22190%22%20y%3D%22-120%22%20width%3D%22100%22%20height%3D%2260%22%20as%3D%22geometry%22%2F%3E%3C%2FmxCell%3E%3C%2Froot%3E%3C%2FmxGraphModel%3E&lt;/span&gt;" style="ellipse;whiteSpace=wrap;html=1;" vertex="1" parent="1">
          <mxGeometry x="10" y="-990" width="100" height="60" as="geometry" />
        </mxCell>
        <mxCell id="iiPp_Zo-3xQFupyXhjwp-53" value="status&lt;span style=&quot;color: rgba(0, 0, 0, 0); font-family: monospace; font-size: 0px; text-align: start; text-wrap-mode: nowrap;&quot;&gt;%3CmxGraphModel%3E%3Croot%3E%3CmxCell%20id%3D%220%22%2F%3E%3CmxCell%20id%3D%221%22%20parent%3D%220%22%2F%3E%3CmxCell%20id%3D%222%22%20value%3D%22%22%20style%3D%22ellipse%3BwhiteSpace%3Dwrap%3Bhtml%3D1%3B%22%20vertex%3D%221%22%20parent%3D%221%22%3E%3CmxGeometry%20x%3D%22190%22%20y%3D%22-120%22%20width%3D%22100%22%20height%3D%2260%22%20as%3D%22geometry%22%2F%3E%3C%2FmxCell%3E%3C%2Froot%3E%3C%2FmxGraphModel%3E&lt;/span&gt;" style="ellipse;whiteSpace=wrap;html=1;" vertex="1" parent="1">
          <mxGeometry x="130" y="-980" width="100" height="60" as="geometry" />
        </mxCell>
        <mxCell id="iiPp_Zo-3xQFupyXhjwp-54" value="reason" style="ellipse;whiteSpace=wrap;html=1;" vertex="1" parent="1">
          <mxGeometry x="220" y="-900" width="100" height="60" as="geometry" />
        </mxCell>
        <mxCell id="iiPp_Zo-3xQFupyXhjwp-55" value="" style="endArrow=none;html=1;rounded=0;entryX=0.5;entryY=1;entryDx=0;entryDy=0;exitX=0.5;exitY=0;exitDx=0;exitDy=0;" edge="1" parent="1" source="iiPp_Zo-3xQFupyXhjwp-4" target="iiPp_Zo-3xQFupyXhjwp-53">
          <mxGeometry width="50" height="50" relative="1" as="geometry">
            <mxPoint y="-810" as="sourcePoint" />
            <mxPoint x="50" y="-860" as="targetPoint" />
          </mxGeometry>
        </mxCell>
        <mxCell id="iiPp_Zo-3xQFupyXhjwp-56" value="" style="endArrow=none;html=1;rounded=0;entryX=-0.01;entryY=0.633;entryDx=0;entryDy=0;entryPerimeter=0;exitX=0.75;exitY=0;exitDx=0;exitDy=0;" edge="1" parent="1" source="iiPp_Zo-3xQFupyXhjwp-4" target="iiPp_Zo-3xQFupyXhjwp-54">
          <mxGeometry width="50" height="50" relative="1" as="geometry">
            <mxPoint x="80" y="-830" as="sourcePoint" />
            <mxPoint x="130" y="-880" as="targetPoint" />
          </mxGeometry>
        </mxCell>
        <mxCell id="iiPp_Zo-3xQFupyXhjwp-57" value="" style="endArrow=none;html=1;rounded=0;entryX=0.5;entryY=1;entryDx=0;entryDy=0;exitX=0.5;exitY=0;exitDx=0;exitDy=0;" edge="1" parent="1" source="iiPp_Zo-3xQFupyXhjwp-4" target="iiPp_Zo-3xQFupyXhjwp-52">
          <mxGeometry width="50" height="50" relative="1" as="geometry">
            <mxPoint x="30" y="-880" as="sourcePoint" />
            <mxPoint x="80" y="-930" as="targetPoint" />
          </mxGeometry>
        </mxCell>
        <mxCell id="iiPp_Zo-3xQFupyXhjwp-58" value="" style="endArrow=none;html=1;rounded=0;entryX=0.79;entryY=0.983;entryDx=0;entryDy=0;entryPerimeter=0;exitX=0.25;exitY=0;exitDx=0;exitDy=0;" edge="1" parent="1" source="iiPp_Zo-3xQFupyXhjwp-4" target="iiPp_Zo-3xQFupyXhjwp-51">
          <mxGeometry width="50" height="50" relative="1" as="geometry">
            <mxPoint x="10" y="-850" as="sourcePoint" />
            <mxPoint x="60" y="-900" as="targetPoint" />
          </mxGeometry>
        </mxCell>
        <mxCell id="iiPp_Zo-3xQFupyXhjwp-59" value="&lt;u&gt;clinical_record_id&lt;/u&gt;" style="ellipse;whiteSpace=wrap;html=1;" vertex="1" parent="1">
          <mxGeometry x="-150" y="-550" width="100" height="60" as="geometry" />
        </mxCell>
        <mxCell id="iiPp_Zo-3xQFupyXhjwp-60" value="record_type" style="ellipse;whiteSpace=wrap;html=1;" vertex="1" parent="1">
          <mxGeometry x="-90" y="-440" width="100" height="60" as="geometry" />
        </mxCell>
        <mxCell id="iiPp_Zo-3xQFupyXhjwp-61" value="summary_text" style="ellipse;whiteSpace=wrap;html=1;" vertex="1" parent="1">
          <mxGeometry x="40" y="-400" width="100" height="60" as="geometry" />
        </mxCell>
        <mxCell id="iiPp_Zo-3xQFupyXhjwp-62" value="created_at" style="ellipse;whiteSpace=wrap;html=1;" vertex="1" parent="1">
          <mxGeometry x="180" y="-420" width="100" height="60" as="geometry" />
        </mxCell>
        <mxCell id="iiPp_Zo-3xQFupyXhjwp-63" value="" style="endArrow=none;html=1;rounded=0;exitX=0.5;exitY=0;exitDx=0;exitDy=0;entryX=0.75;entryY=1;entryDx=0;entryDy=0;" edge="1" parent="1" source="iiPp_Zo-3xQFupyXhjwp-62" target="iiPp_Zo-3xQFupyXhjwp-5">
          <mxGeometry width="50" height="50" relative="1" as="geometry">
            <mxPoint x="-120" y="-390" as="sourcePoint" />
            <mxPoint x="-70" y="-440" as="targetPoint" />
          </mxGeometry>
        </mxCell>
        <mxCell id="iiPp_Zo-3xQFupyXhjwp-64" value="" style="endArrow=none;html=1;rounded=0;entryX=0.5;entryY=1;entryDx=0;entryDy=0;exitX=0.5;exitY=0;exitDx=0;exitDy=0;" edge="1" parent="1" source="iiPp_Zo-3xQFupyXhjwp-61" target="iiPp_Zo-3xQFupyXhjwp-5">
          <mxGeometry width="50" height="50" relative="1" as="geometry">
            <mxPoint x="29" y="-430" as="sourcePoint" />
            <mxPoint x="79" y="-480" as="targetPoint" />
          </mxGeometry>
        </mxCell>
        <mxCell id="iiPp_Zo-3xQFupyXhjwp-65" value="" style="endArrow=none;html=1;rounded=0;entryX=0.25;entryY=1;entryDx=0;entryDy=0;exitX=1;exitY=0;exitDx=0;exitDy=0;" edge="1" parent="1" source="iiPp_Zo-3xQFupyXhjwp-60" target="iiPp_Zo-3xQFupyXhjwp-5">
          <mxGeometry width="50" height="50" relative="1" as="geometry">
            <mxPoint x="30" y="-440" as="sourcePoint" />
            <mxPoint x="80" y="-490" as="targetPoint" />
          </mxGeometry>
        </mxCell>
        <mxCell id="iiPp_Zo-3xQFupyXhjwp-66" value="" style="endArrow=none;html=1;rounded=0;exitX=1;exitY=0.5;exitDx=0;exitDy=0;entryX=0;entryY=0.5;entryDx=0;entryDy=0;" edge="1" parent="1" source="iiPp_Zo-3xQFupyXhjwp-59" target="iiPp_Zo-3xQFupyXhjwp-5">
          <mxGeometry width="50" height="50" relative="1" as="geometry">
            <mxPoint x="-46" y="-500" as="sourcePoint" />
            <mxPoint x="4" y="-550" as="targetPoint" />
          </mxGeometry>
        </mxCell>
        <mxCell id="iiPp_Zo-3xQFupyXhjwp-67" value="&lt;u&gt;policy_id&lt;/u&gt;" style="ellipse;whiteSpace=wrap;html=1;" vertex="1" parent="1">
          <mxGeometry x="-600" y="-540" width="100" height="60" as="geometry" />
        </mxCell>
        <mxCell id="iiPp_Zo-3xQFupyXhjwp-68" value="policy_number" style="ellipse;whiteSpace=wrap;html=1;" vertex="1" parent="1">
          <mxGeometry x="-600" y="-460" width="100" height="60" as="geometry" />
        </mxCell>
        <mxCell id="iiPp_Zo-3xQFupyXhjwp-69" value="insurance_company_name" style="ellipse;whiteSpace=wrap;html=1;" vertex="1" parent="1">
          <mxGeometry x="-570" y="-380" width="160" height="60" as="geometry" />
        </mxCell>
        <mxCell id="iiPp_Zo-3xQFupyXhjwp-70" value="start_date" style="ellipse;whiteSpace=wrap;html=1;" vertex="1" parent="1">
          <mxGeometry x="-410" y="-340" width="100" height="60" as="geometry" />
        </mxCell>
        <mxCell id="iiPp_Zo-3xQFupyXhjwp-71" value="end_date" style="ellipse;whiteSpace=wrap;html=1;" vertex="1" parent="1">
          <mxGeometry x="-300" y="-340" width="100" height="60" as="geometry" />
        </mxCell>
        <mxCell id="iiPp_Zo-3xQFupyXhjwp-72" value="status" style="ellipse;whiteSpace=wrap;html=1;" vertex="1" parent="1">
          <mxGeometry x="-220" y="-400" width="100" height="60" as="geometry" />
        </mxCell>
        <mxCell id="iiPp_Zo-3xQFupyXhjwp-73" value="" style="endArrow=none;html=1;rounded=0;exitX=0;exitY=0;exitDx=0;exitDy=0;entryX=1;entryY=0.75;entryDx=0;entryDy=0;" edge="1" parent="1" source="iiPp_Zo-3xQFupyXhjwp-72" target="iiPp_Zo-3xQFupyXhjwp-6">
          <mxGeometry width="50" height="50" relative="1" as="geometry">
            <mxPoint x="-520" y="-390" as="sourcePoint" />
            <mxPoint x="-470" y="-440" as="targetPoint" />
          </mxGeometry>
        </mxCell>
        <mxCell id="iiPp_Zo-3xQFupyXhjwp-74" value="" style="endArrow=none;html=1;rounded=0;entryX=0.75;entryY=1;entryDx=0;entryDy=0;exitX=0.5;exitY=0;exitDx=0;exitDy=0;" edge="1" parent="1" source="iiPp_Zo-3xQFupyXhjwp-71" target="iiPp_Zo-3xQFupyXhjwp-6">
          <mxGeometry width="50" height="50" relative="1" as="geometry">
            <mxPoint x="-310" y="-365" as="sourcePoint" />
            <mxPoint x="-260" y="-415" as="targetPoint" />
          </mxGeometry>
        </mxCell>
        <mxCell id="iiPp_Zo-3xQFupyXhjwp-75" value="" style="endArrow=none;html=1;rounded=0;exitX=0.5;exitY=0;exitDx=0;exitDy=0;entryX=0.25;entryY=1;entryDx=0;entryDy=0;" edge="1" parent="1" source="iiPp_Zo-3xQFupyXhjwp-70" target="iiPp_Zo-3xQFupyXhjwp-6">
          <mxGeometry width="50" height="50" relative="1" as="geometry">
            <mxPoint x="-520" y="-390" as="sourcePoint" />
            <mxPoint x="-470" y="-440" as="targetPoint" />
          </mxGeometry>
        </mxCell>
        <mxCell id="iiPp_Zo-3xQFupyXhjwp-76" value="" style="endArrow=none;html=1;rounded=0;entryX=0;entryY=0.75;entryDx=0;entryDy=0;exitX=0.75;exitY=0;exitDx=0;exitDy=0;exitPerimeter=0;" edge="1" parent="1" source="iiPp_Zo-3xQFupyXhjwp-69" target="iiPp_Zo-3xQFupyXhjwp-6">
          <mxGeometry width="50" height="50" relative="1" as="geometry">
            <mxPoint x="-400" y="-365" as="sourcePoint" />
            <mxPoint x="-350" y="-415" as="targetPoint" />
          </mxGeometry>
        </mxCell>
        <mxCell id="iiPp_Zo-3xQFupyXhjwp-77" value="" style="endArrow=none;html=1;rounded=0;entryX=0;entryY=0.5;entryDx=0;entryDy=0;exitX=1;exitY=0.5;exitDx=0;exitDy=0;" edge="1" parent="1" source="iiPp_Zo-3xQFupyXhjwp-68" target="iiPp_Zo-3xQFupyXhjwp-6">
          <mxGeometry width="50" height="50" relative="1" as="geometry">
            <mxPoint x="-520" y="-390" as="sourcePoint" />
            <mxPoint x="-440" y="-460" as="targetPoint" />
          </mxGeometry>
        </mxCell>
        <mxCell id="iiPp_Zo-3xQFupyXhjwp-78" value="" style="endArrow=none;html=1;rounded=0;entryX=0;entryY=0.5;entryDx=0;entryDy=0;exitX=1;exitY=0.5;exitDx=0;exitDy=0;" edge="1" parent="1" source="iiPp_Zo-3xQFupyXhjwp-67" target="iiPp_Zo-3xQFupyXhjwp-6">
          <mxGeometry width="50" height="50" relative="1" as="geometry">
            <mxPoint x="-490" y="-485" as="sourcePoint" />
            <mxPoint x="-440" y="-535" as="targetPoint" />
          </mxGeometry>
        </mxCell>
        <mxCell id="iiPp_Zo-3xQFupyXhjwp-79" value="user_id" style="ellipse;whiteSpace=wrap;html=1;fontStyle=4" vertex="1" parent="1">
          <mxGeometry x="410" y="-860" width="100" height="60" as="geometry" />
        </mxCell>
        <mxCell id="iiPp_Zo-3xQFupyXhjwp-80" value="user_name" style="ellipse;whiteSpace=wrap;html=1;" vertex="1" parent="1">
          <mxGeometry x="580" y="-830" width="100" height="60" as="geometry" />
        </mxCell>
        <mxCell id="iiPp_Zo-3xQFupyXhjwp-81" value="role" style="ellipse;whiteSpace=wrap;html=1;" vertex="1" parent="1">
          <mxGeometry x="630" y="-700" width="100" height="60" as="geometry" />
        </mxCell>
        <mxCell id="iiPp_Zo-3xQFupyXhjwp-82" value="" style="endArrow=none;html=1;rounded=0;exitX=0.5;exitY=0;exitDx=0;exitDy=0;entryX=0.5;entryY=1;entryDx=0;entryDy=0;" edge="1" parent="1" source="iiPp_Zo-3xQFupyXhjwp-7" target="iiPp_Zo-3xQFupyXhjwp-79">
          <mxGeometry width="50" height="50" relative="1" as="geometry">
            <mxPoint x="380" y="-790" as="sourcePoint" />
            <mxPoint x="430" y="-840" as="targetPoint" />
          </mxGeometry>
        </mxCell>
        <mxCell id="iiPp_Zo-3xQFupyXhjwp-83" value="" style="endArrow=none;html=1;rounded=0;exitX=0.75;exitY=0;exitDx=0;exitDy=0;entryX=0;entryY=1;entryDx=0;entryDy=0;" edge="1" parent="1" source="iiPp_Zo-3xQFupyXhjwp-7" target="iiPp_Zo-3xQFupyXhjwp-80">
          <mxGeometry width="50" height="50" relative="1" as="geometry">
            <mxPoint x="380" y="-790" as="sourcePoint" />
            <mxPoint x="430" y="-840" as="targetPoint" />
          </mxGeometry>
        </mxCell>
        <mxCell id="iiPp_Zo-3xQFupyXhjwp-84" value="" style="endArrow=none;html=1;rounded=0;exitX=1;exitY=0.5;exitDx=0;exitDy=0;entryX=0;entryY=0.5;entryDx=0;entryDy=0;" edge="1" parent="1" source="iiPp_Zo-3xQFupyXhjwp-7" target="iiPp_Zo-3xQFupyXhjwp-81">
          <mxGeometry width="50" height="50" relative="1" as="geometry">
            <mxPoint x="380" y="-790" as="sourcePoint" />
            <mxPoint x="430" y="-840" as="targetPoint" />
          </mxGeometry>
        </mxCell>
        <mxCell id="iiPp_Zo-3xQFupyXhjwp-86" value="entity_name" style="ellipse;whiteSpace=wrap;html=1;" vertex="1" parent="1">
          <mxGeometry x="660" y="-375" width="100" height="60" as="geometry" />
        </mxCell>
        <mxCell id="iiPp_Zo-3xQFupyXhjwp-87" value="action" style="ellipse;whiteSpace=wrap;html=1;" vertex="1" parent="1">
          <mxGeometry x="540" y="-290" width="100" height="60" as="geometry" />
        </mxCell>
        <mxCell id="iiPp_Zo-3xQFupyXhjwp-88" value="timestamp" style="ellipse;whiteSpace=wrap;html=1;" vertex="1" parent="1">
          <mxGeometry x="350" y="-290" width="100" height="60" as="geometry" />
        </mxCell>
        <mxCell id="iiPp_Zo-3xQFupyXhjwp-89" value="&lt;u&gt;audit_log_id&lt;/u&gt;" style="ellipse;whiteSpace=wrap;html=1;" vertex="1" parent="1">
          <mxGeometry x="640" y="-480" width="100" height="60" as="geometry" />
        </mxCell>
        <mxCell id="iiPp_Zo-3xQFupyXhjwp-90" value="" style="endArrow=none;html=1;rounded=0;entryX=1;entryY=0.25;entryDx=0;entryDy=0;" edge="1" parent="1" source="iiPp_Zo-3xQFupyXhjwp-89" target="iiPp_Zo-3xQFupyXhjwp-12">
          <mxGeometry width="50" height="50" relative="1" as="geometry">
            <mxPoint x="380" y="-390" as="sourcePoint" />
            <mxPoint x="430" y="-440" as="targetPoint" />
          </mxGeometry>
        </mxCell>
        <mxCell id="iiPp_Zo-3xQFupyXhjwp-91" value="" style="endArrow=none;html=1;rounded=0;entryX=0;entryY=0.5;entryDx=0;entryDy=0;exitX=1.025;exitY=0.617;exitDx=0;exitDy=0;exitPerimeter=0;" edge="1" parent="1" source="iiPp_Zo-3xQFupyXhjwp-12" target="iiPp_Zo-3xQFupyXhjwp-86">
          <mxGeometry width="50" height="50" relative="1" as="geometry">
            <mxPoint x="380" y="-390" as="sourcePoint" />
            <mxPoint x="430" y="-440" as="targetPoint" />
          </mxGeometry>
        </mxCell>
        <mxCell id="iiPp_Zo-3xQFupyXhjwp-92" value="" style="endArrow=none;html=1;rounded=0;exitX=0;exitY=0;exitDx=0;exitDy=0;entryX=0.75;entryY=1;entryDx=0;entryDy=0;" edge="1" parent="1" source="iiPp_Zo-3xQFupyXhjwp-87" target="iiPp_Zo-3xQFupyXhjwp-12">
          <mxGeometry width="50" height="50" relative="1" as="geometry">
            <mxPoint x="380" y="-390" as="sourcePoint" />
            <mxPoint x="430" y="-440" as="targetPoint" />
          </mxGeometry>
        </mxCell>
        <mxCell id="iiPp_Zo-3xQFupyXhjwp-93" value="" style="endArrow=none;html=1;rounded=0;exitX=0.5;exitY=0;exitDx=0;exitDy=0;entryX=0.5;entryY=1;entryDx=0;entryDy=0;" edge="1" parent="1" source="iiPp_Zo-3xQFupyXhjwp-88" target="iiPp_Zo-3xQFupyXhjwp-12">
          <mxGeometry width="50" height="50" relative="1" as="geometry">
            <mxPoint x="380" y="-390" as="sourcePoint" />
            <mxPoint x="430" y="-440" as="targetPoint" />
          </mxGeometry>
        </mxCell>
        <mxCell id="iiPp_Zo-3xQFupyXhjwp-95" value="age" style="ellipse;whiteSpace=wrap;html=1;" vertex="1" parent="1">
          <mxGeometry x="-750" y="-640" width="100" height="60" as="geometry" />
        </mxCell>
        <mxCell id="iiPp_Zo-3xQFupyXhjwp-96" value="" style="endArrow=none;html=1;rounded=0;entryX=0;entryY=0.5;entryDx=0;entryDy=0;exitX=1;exitY=0.5;exitDx=0;exitDy=0;" edge="1" parent="1" source="iiPp_Zo-3xQFupyXhjwp-95" target="iiPp_Zo-3xQFupyXhjwp-40">
          <mxGeometry width="50" height="50" relative="1" as="geometry">
            <mxPoint x="-740" y="-520" as="sourcePoint" />
            <mxPoint x="-690" y="-570" as="targetPoint" />
          </mxGeometry>
        </mxCell>
      </root>
    </mxGraphModel>
  </diagram>
</mxfile>
